# xmcd
#
# Track frame offsets: 
#        150
#        105200
#        136841
#        179581
#        211980
#
# Disc length: 3367 seconds
#
# Revision: 1
# Processed by: cddbd v1.5.2PL0 Copyright (c) Steve Scherf et al.
# Submitted via: ExactAudioCopy v0.99pb5
#
DISCID=3c0d2505
DTITLE=Gil Scott-Heron - Tour De Force (Live) [CD2)
DYEAR=2004
DGENRE=Jazz+Funk
TTITLE0=Angel Dust
TTITLE1=Shut 'em Down
TTITLE2=Alien (Hold On To Your Dream)
TTITLE3=B Movie
TTITLE4=The Bottle
EXTD=
EXTT0=
EXTT1=
EXTT2=
EXTT3=
EXTT4=
PLAYORDER=
